# xmcd
#
# Track frame offsets:
#	150
#	16283
#	31399
#	45588
#	61860
#	78343
#	93590
#	108452
#	123017
#	138893
#	154728
#	168602
#	182402
#	196740
#	211797
#	226177
#	242002
#	256865
#	272208
#
# Disc length: 3828 seconds
# Revision: 0
# Processed by: cddbd v1.5.2PL0 Copyright (c) Steve Scherf et al.
# Submitted via: dBpowerAMP V12.0
#
DISCID=ed0ef213
DTITLE=Tommy Johnson - Complete Recordings (1928-9)
DYEAR=1900
DGENRE=
TTITLE0=Cool Drink Of Water Blues
TTITLE1=Big Road Blues
TTITLE2=Bye-Bye Blues
TTITLE3=Maggie Campbell Blues
TTITLE4=Canned Heat Blues
TTITLE5=Lonesome Home Blues
TTITLE6=Lonesome Home Blues
TTITLE7=Big Fat Mamma Blues
TTITLE8=I Want Someone To Love Me
TTITLE9=I Want Someone To Love Me
TTITLE10=I Wonder To Myself
TTITLE11=Slidin' Delta
TTITLE12=Lonesome Home Blues
TTITLE13=Untitled 1
TTITLE14=Untitled 2
TTITLE15=Black Mare Blues
TTITLE16=Black Mare Blues
TTITLE17=Ridin' Horse
TTITLE18=Alcohol And Jake Blues
EXTD=
EXTT0=
EXTT1=
EXTT2=
EXTT3=
EXTT4=
EXTT5=
EXTT6=
EXTT7=
EXTT8=
EXTT9=
EXTT10=
EXTT11=
EXTT12=
EXTT13=
EXTT14=
EXTT15=
EXTT16=
EXTT17=
EXTT18=
PLAYORDER=
